# xmcd
#
# Track frame offsets:
#	150
#	18565
#	36922
#	54076
#	72665
#	97582
#	116049
#	136305
#	156557
#	177585
#	193295
#	220083
#	235605
#	255114
#
# Disc length: 3633 seconds
#
# Revision: 1
# Processed by: cddbd v1.5.2PL0 Copyright (c) Steve Scherf et al.
# Submitted via: audiograbber 1.83.01
#
DISCID=c10e2f0e
DTITLE=AA VV - Latino! 27
DYEAR=2008
DGENRE=Salsa
TTITLE0=Oscar De Leon - Ni Frio Ni Calor
TTITLE1=Daniel Santacruz - If I Give You My Love 
TTITLE2=Chambao - Papeles Mojados 
TTITLE3=Maikel Blanco Y Su Salsamayor Feat. Gente De Zona - Si Le Gusta Repite
TTITLE4=Gilberto Santa Rosa - Pensando En Tí (Salsa Version) 
TTITLE5=Kinito Mendez - La Colorá 
TTITLE6=Monica Mesa - Como Le Digo A Mi Corazón 
TTITLE7=Ketama - Vente Pá Madrid 
TTITLE8=Victor Manuelle - No Soy Quien (Salsa Version) 
TTITLE9=Jn3 - Baila Para Mí
TTITLE10=Paulo Fg Y Jacob Forever - La Celosa 
TTITLE11=Wisin and Yandel - Ahora Es
TTITLE12=Gente De Zona Feat. Eddy K - Tierra Caliente 
TTITLE13=Haila - Siempre Te Amaré
EXTD=YEAR: 2008
EXTT0=
EXTT1=
EXTT2=
EXTT3=
EXTT4=
EXTT5=
EXTT6=
EXTT7=
EXTT8=
EXTT9=
EXTT10=
EXTT11=
EXTT12=
EXTT13=
PLAYORDER=
